<?xml version="1.0" standalone="no"?>
<!DOCTYPE svg PUBLIC "-//W3C//DTD SVG 20010904//EN"
 "http://www.w3.org/TR/2001/REC-SVG-20010904/DTD/svg10.dtd">
<svg version="1.0" xmlns="http://www.w3.org/2000/svg"
 width="720.000000pt" height="720.000000pt" viewBox="0 0 720.000000 720.000000"
 preserveAspectRatio="xMidYMid meet">

<g transform="translate(0.000000,720.000000) scale(0.100000,-0.100000)"
fill="#000000" stroke="none">
<path d="M1795 6820 c-241 -12 -373 -33 -529 -84 -382 -125 -700 -432 -839
-811 -14 -38 -37 -117 -50 -175 -52 -220 -52 -226 -51 -1795 0 -803 2 -1468 4
-1478 2 -12 7 -14 14 -7 5 5 16 10 23 10 17 0 53 36 45 45 -4 3 1 3 11 -1 19
-7 71 22 63 35 -3 4 6 6 19 3 16 -3 25 0 25 8 0 8 8 10 21 7 12 -3 18 -3 15 0
-7 7 19 33 33 33 6 0 29 11 51 25 22 14 44 25 50 25 5 0 10 5 10 11 0 5 4 8 9
4 5 -3 13 0 17 6 5 8 2 10 -7 5 -8 -4 -5 0 5 8 15 12 22 13 27 4 7 -10 11 -10
21 0 14 14 42 16 33 2 -9 -14 8 -12 24 3 11 10 14 9 18 -1 3 -6 10 -9 16 -5 7
4 6 -1 -2 -10 -17 -22 -14 -21 37 3 50 24 59 25 41 3 -10 -11 -10 -14 -1 -9 6
4 12 4 12 -1 0 -4 14 -15 32 -22 18 -8 47 -29 65 -48 19 -18 40 -33 47 -33 12
0 23 -23 32 -68 1 -8 6 -17 9 -20 4 -4 5 22 1 58 -10 103 -15 1682 -6 1930 13
348 43 526 124 729 66 162 146 282 277 412 220 218 489 330 889 370 104 11
355 14 1085 14 832 0 968 -2 1097 -17 401 -47 658 -162 887 -398 204 -211 325
-509 356 -873 31 -375 31 -1742 0 -2142 -26 -346 -127 -617 -309 -833 -212
-251 -522 -409 -879 -448 -66 -7 -112 -23 -68 -24 13 0 40 -12 60 -27 20 -16
40 -27 45 -25 21 7 216 -177 216 -204 0 -8 14 -26 30 -41 17 -14 28 -28 26
-31 -3 -2 4 -13 14 -25 11 -11 17 -24 14 -29 -3 -5 0 -7 8 -6 7 2 14 -7 16
-20 2 -12 8 -20 13 -17 5 3 6 -1 2 -10 -3 -10 -1 -20 4 -24 20 -13 113 -169
94 -157 -6 4 -2 -10 8 -31 10 -21 30 -64 45 -96 16 -32 35 -61 43 -64 26 -10
313 25 413 51 250 63 452 177 631 355 228 229 350 492 395 854 15 118 16 321
17 1917 0 1610 -2 1798 -17 1917 -45 360 -166 621 -391 850 -175 177 -383 295
-636 359 -233 59 -171 57 -2014 59 -929 1 -1757 -1 -1840 -5z m-1085 -4124 c0
-2 -7 -7 -16 -10 -8 -3 -12 -2 -9 4 6 10 25 14 25 6z m-250 -140 c0 -2 -8 -10
-17 -17 -16 -13 -17 -12 -4 4 13 16 21 21 21 13z"/>
<path d="M2555 5569 c-367 -20 -574 -99 -747 -285 -154 -165 -216 -363 -238
-752 -19 -358 -8 -1795 16 -1932 6 -32 7 -33 15 -12 5 12 13 22 18 22 12 0 9
33 -4 42 -6 4 -2 8 8 8 10 0 17 8 17 19 0 10 13 29 28 41 21 17 27 29 24 46
-3 17 0 24 12 24 9 0 16 7 16 15 0 18 16 20 23 3 3 -7 6 -2 6 11 1 18 5 22 21
18 10 -3 19 -2 18 2 -2 21 4 31 21 31 10 0 21 7 25 15 3 9 18 15 35 15 16 0
37 7 46 16 13 13 44 18 152 21 134 5 136 4 162 -21 17 -16 40 -26 66 -28 30
-2 42 -9 50 -25 6 -15 18 -23 33 -23 13 0 35 -9 49 -20 14 -11 32 -20 39 -20
8 0 14 -4 14 -10 0 -5 9 -10 19 -10 24 0 36 -16 19 -23 -7 -3 3 -6 22 -6 37
-1 80 -20 50 -22 -8 0 -1 -7 15 -14 17 -7 39 -23 49 -34 11 -12 27 -21 36 -21
9 0 31 -11 50 -25 19 -14 39 -25 46 -25 17 0 74 -33 74 -42 0 -5 7 -8 15 -8 9
0 26 -6 38 -14 12 -8 34 -17 49 -20 16 -2 45 -13 65 -24 21 -11 52 -25 68 -32
17 -7 42 -19 56 -26 15 -8 35 -15 45 -17 11 -2 41 -13 68 -25 26 -12 64 -26
85 -32 20 -5 45 -16 56 -23 11 -8 36 -18 55 -22 19 -4 41 -12 47 -17 7 -6 20
-8 28 -4 11 4 14 2 9 -6 -5 -8 -2 -9 11 -4 12 4 32 -2 56 -19 21 -13 45 -22
53 -19 9 3 29 -4 45 -15 20 -14 38 -20 54 -16 15 4 28 1 36 -9 8 -9 18 -16 24
-16 5 0 16 -8 24 -17 10 -13 16 -15 19 -5 9 20 23 14 69 -29 28 -27 42 -47 38
-57 -4 -14 -3 -14 5 -3 9 12 22 4 69 -44 l58 -58 -32 5 c-30 4 -32 3 -18 -12
8 -9 12 -20 8 -25 -5 -4 -3 -5 3 -2 6 4 20 -3 30 -15 19 -21 19 -21 -10 -14
-27 7 -28 6 -15 -11 8 -10 19 -21 24 -25 6 -5 5 -8 -3 -8 -9 0 -7 -9 8 -30 19
-27 19 -34 -2 -31 -10 1 -3 -46 11 -82 l11 -28 207 2 c391 3 616 62 788 206
170 143 264 324 301 580 42 289 42 1999 0 2286 -37 256 -131 437 -301 580
-158 132 -351 190 -695 207 -208 11 -1665 10 -1865 -1z m2329 -408 c99 -43
159 -133 164 -247 4 -61 0 -79 -22 -127 -32 -67 -107 -138 -164 -155 -203 -61
-400 95 -378 299 7 71 31 121 81 171 86 85 209 108 319 59z m-1121 -332 c362
-80 670 -322 833 -654 84 -169 124 -342 124 -535 0 -247 -69 -475 -207 -684
-54 -81 -212 -244 -293 -304 -128 -92 -306 -173 -461 -208 -101 -22 -368 -27
-469 -8 -387 73 -705 313 -878 660 -174 347 -169 759 11 1104 118 226 330 432
547 533 153 70 262 102 400 117 107 12 290 2 393 -21z m221 -2695 c3 -8 2 -12
-4 -9 -6 3 -10 10 -10 16 0 14 7 11 14 -7z"/>
<path d="M3360 4415 c-320 -62 -566 -304 -631 -620 -19 -93 -14 -256 10 -349
139 -529 758 -764 1209 -457 144 97 257 252 315 429 18 57 22 91 22 222 0 169
-12 223 -78 354 -155 311 -510 487 -847 421z"/>
<path d="M1948 2913 c7 -3 16 -2 19 1 4 3 -2 6 -13 5 -11 0 -14 -3 -6 -6z"/>
<path d="M1592 2520 c0 -19 2 -27 5 -17 2 9 2 25 0 35 -3 9 -5 1 -5 -18z"/>
<path d="M1152 2455 c0 -16 2 -22 5 -12 2 9 2 23 0 30 -3 6 -5 -1 -5 -18z"/>
<path d="M1601 2464 c0 -11 3 -14 6 -6 3 7 2 16 -1 19 -3 4 -6 -2 -5 -13z"/>
</g>
</svg>
