<?xml version="1.0" standalone="no"?>
<!DOCTYPE svg PUBLIC "-//W3C//DTD SVG 20010904//EN"
 "http://www.w3.org/TR/2001/REC-SVG-20010904/DTD/svg10.dtd">
<svg version="1.0" xmlns="http://www.w3.org/2000/svg"
 width="720.000000pt" height="720.000000pt" viewBox="0 0 720.000000 720.000000"
 preserveAspectRatio="xMidYMid meet">

<g transform="translate(0.000000,720.000000) scale(0.100000,-0.100000)"
fill="#000000" stroke="none">
<path d="M525 7193 c-233 -31 -429 -203 -502 -438 -17 -58 -18 -179 -18 -3155
0 -2976 1 -3097 18 -3155 64 -207 206 -350 417 -421 53 -18 126 -19 1698 -22
l1642 -2 0 1435 0 1435 -385 0 -385 0 0 525 0 525 384 0 384 0 5 308 c3 210
10 345 21 427 78 553 293 989 590 1194 324 223 838 318 1539 284 l137 -6 0
-529 c0 -290 -3 -528 -8 -528 -4 0 -78 5 -164 10 -277 19 -547 -16 -681 -87
-74 -39 -196 -164 -231 -237 -44 -93 -56 -189 -63 -528 l-6 -308 574 -2 574
-3 3 -522 2 -523 -575 0 -575 0 0 -1435 0 -1436 893 3 c836 3 895 5 947 22
211 70 353 214 417 421 17 58 18 179 18 3155 0 2976 -1 3097 -18 3155 -64 206
-206 350 -417 421 -53 18 -159 19 -3130 20 -1691 1 -3088 -1 -3105 -3z"/>
</g>
</svg>
